<?xml version="1.0" encoding="UTF-8" standalone="no"?>
<!-- Created with Inkscape (http://www.inkscape.org/) -->

<svg
   xmlns:dc="http://purl.org/dc/elements/1.1/"
   xmlns:cc="http://creativecommons.org/ns#"
   xmlns:rdf="http://www.w3.org/1999/02/22-rdf-syntax-ns#"
   xmlns:svg="http://www.w3.org/2000/svg"
   xmlns="http://www.w3.org/2000/svg"
   xmlns:sodipodi="http://sodipodi.sourceforge.net/DTD/sodipodi-0.dtd"
   xmlns:inkscape="http://www.inkscape.org/namespaces/inkscape"
   width="289.27777mm"
   height="289.36493mm"
   viewBox="0 0 1025 1025.3088"
   id="svg2"
   version="1.1"
   inkscape:version="0.91 r13725"
   sodipodi:docname="bublina.svg">
  <defs
     id="defs4" />
  <sodipodi:namedview
     id="base"
     pagecolor="#ffffff"
     bordercolor="#666666"
     borderopacity="1.0"
     inkscape:pageopacity="0.0"
     inkscape:pageshadow="2"
     inkscape:zoom="0.35"
     inkscape:cx="-624.5"
     inkscape:cy="492.44664"
     inkscape:document-units="px"
     inkscape:current-layer="layer1"
     showgrid="false"
     inkscape:window-width="1855"
     inkscape:window-height="1056"
     inkscape:window-x="65"
     inkscape:window-y="24"
     inkscape:window-maximized="1"
     fit-margin-top="0"
     fit-margin-left="0"
     fit-margin-right="0"
     fit-margin-bottom="0" />
  <metadata
     id="metadata7">
    <rdf:RDF>
      <cc:Work
         rdf:about="">
        <dc:format>image/svg+xml</dc:format>
        <dc:type
           rdf:resource="http://purl.org/dc/dcmitype/StillImage" />
        <dc:title></dc:title>
      </cc:Work>
    </rdf:RDF>
  </metadata>
  <g
     inkscape:label="Vrstva 1"
     inkscape:groupmode="layer"
     id="layer1"
     transform="translate(0.5,0.5)">
    <path
       style="fill:#35e8e5;fill-rule:evenodd;stroke:#35e8e5;stroke-width:1px;stroke-linecap:butt;stroke-linejoin:miter;stroke-opacity:1"
       d="m 495.744,626.88 c -20.864,0 -38.336,17.472 -38.336,38.528 0,20.864 17.408,38.4 38.336,38.4 20.928,0 38.336,-17.472 38.336,-38.4 -0.064,-21.056 -17.408,-38.528 -38.336,-38.528 z M 512,0 C 229.248,0 0,200.576 0,448 0,589.376 75.072,715.392 192,797.504 L 192,1024 454.144,892.992 C 473.152,894.848 492.416,896 512,896 794.688,896 1024,695.488 1024,448 1024,200.576 794.752,0 512,0 Z m 0,832 c -29.632,0 -64,0.128 -64,0.128 L 256,928 256,768 C 256,768 64,589.504 64,448 64,235.968 264.576,64 512,64 759.36,64 960,235.968 960,448 960,660.096 759.36,832 512,832 Z m -8.576,-608 c -66.176,0 -117.76,27.2 -151.168,71.168 l 34.816,37.696 c 25.792,-34.88 58.496,-57.216 111.488,-57.216 54.4,0 81.472,30.08 81.472,64.96 0,74.048 -125.376,81.024 -125.376,169.664 0,21.76 7.68,41.28 26.496,57.28 L 523.712,548.8 C 511.808,540.416 505.536,526.4 505.536,515.328 505.472,446.656 640,437.632 640,332.16 640,272.128 588.352,224 503.424,224"
       id="path3336"
       inkscape:connector-curvature="0" />
  </g>
</svg>
